# xmcd
#
# Track frame offsets:
#	182
#	17927
#	37787
#	57665
#	78752
#	96425
#	114695
#	139970
#	167697
#
# Disc length: 2796
#
# Revision: 1
# Processed by: cddbd v1.5.1PL0 Copyright (c) Steve Scherf et al.
# Submitted via: CDex 1.51
# Normalized: r0:TDELIM( - )
#
DISCID=750aea09
DTITLE=Various Artist - Summer Of Love
DYEAR=2000
DGENRE=Jazz
TTITLE0=Boney James and Rick Braun - Grazin' In The Grass
TTITLE1=Larry Carlton - Fingerprints
TTITLE2=Bob James - Rise The Roof
TTITLE3=Euge Groove - Give In To Me
TTITLE4=Norman Brown - Celebration
TTITLE5=Kirk Whalum - That's The Way Love Goes
TTITLE6=Pat Metheny - Go Get It
TTITLE7=Joshua Redman - Stoic Revolutions
TTITLE8=WB All-Stars - Watermelon Man
EXTD=YEAR: 2000
EXTT0=
EXTT1=
EXTT2=
EXTT3=
EXTT4=
EXTT5=
EXTT6=
EXTT7=
EXTT8=
PLAYORDER=
